TITLE "Dancing in Your Head"
PERFORMER "Ornette Coleman"
CATALOG 4988005226914
REM GENRE "Contemporary Jazz"
REM DATE "1976"
REM DISCID 1F075F03
FILE "Dancing in Your Head.flac" WAVE
  TRACK 01 AUDIO
    TITLE "Theme from a Symphony - Variation 1"
    INDEX 00 00:00:00
    INDEX 01 00:00:37
  TRACK 02 AUDIO
    TITLE "Theme from a Symphony - Variation 2"
    INDEX 00 15:38:63
    INDEX 01 15:43:30
  TRACK 03 AUDIO
    TITLE "Midnight Sunrise"
    INDEX 00 26:50:01
    INDEX 01 26:51:05
